<svg version="1.2" xmlns="http://www.w3.org/2000/svg" viewBox="0 0 4000 4000" width="80" height="80">
	<title>7-ai</title>
	<defs>
		<linearGradient id="g1" x2="1" gradientUnits="userSpaceOnUse" gradientTransform="matrix(-675.525,509.351,-131.915,-174.951,2190.346,2605.457)">
			<stop offset="0" stop-color="#00478f"/>
			<stop offset="1" stop-color="#29c4ff"/>
		</linearGradient>
		<linearGradient id="g2" x2="1" gradientUnits="userSpaceOnUse" gradientTransform="matrix(-558.478,745.456,-187.313,-140.331,2544.555,2662.906)">
			<stop offset="0" stop-color="#00478f"/>
			<stop offset="1" stop-color="#29c4ff"/>
		</linearGradient>
		<linearGradient id="g3" x2="1" gradientUnits="userSpaceOnUse" gradientTransform="matrix(-164.658,641.671,-148.745,-38.169,2811.819,2511.203)">
			<stop offset="0" stop-color="#00478f"/>
			<stop offset="1" stop-color="#29c4ff"/>
		</linearGradient>
		<linearGradient id="g4" x2="1" gradientUnits="userSpaceOnUse" gradientTransform="matrix(80.07,876.748,-634.62,57.957,2824.045,1282.693)">
			<stop offset="0" stop-color="#ffce4b"/>
			<stop offset="1" stop-color="#d3226f"/>
		</linearGradient>
		<linearGradient id="g5" x2="1" gradientUnits="userSpaceOnUse" gradientTransform="matrix(42.484,396.724,-113.509,12.155,2288.121,1804.034)">
			<stop offset="0" stop-color="#00478f"/>
			<stop offset="1" stop-color="#51f4e9"/>
		</linearGradient>
		<linearGradient id="g6" x2="1" gradientUnits="userSpaceOnUse" gradientTransform="matrix(88.833,633.49,-189.964,26.638,2536.685,1647.001)">
			<stop offset="0" stop-color="#00478f"/>
			<stop offset="1" stop-color="#29c4ff"/>
		</linearGradient>
		<linearGradient id="g7" x2="1" gradientUnits="userSpaceOnUse" gradientTransform="matrix(285.843,569.016,-157.165,78.951,2542.115,1204.606)">
			<stop offset="0" stop-color="#003780"/>
			<stop offset="1" stop-color="#b222d3"/>
		</linearGradient>
		<linearGradient id="g8" x2="1" gradientUnits="userSpaceOnUse" gradientTransform="matrix(359.301,239.91,-152.86,228.931,2471.934,1302.812)">
			<stop offset="0" stop-color="#4e046d"/>
			<stop offset="1" stop-color="#ff8bc7"/>
		</linearGradient>
		<linearGradient id="g9" x2="1" gradientUnits="userSpaceOnUse" gradientTransform="matrix(813.248,729.991,-198.688,221.348,2295.75,1145.807)">
			<stop offset="0" stop-color="#4e046d"/>
			<stop offset="1" stop-color="#ff8bc7"/>
		</linearGradient>
		<linearGradient id="g10" x2="1" gradientUnits="userSpaceOnUse" gradientTransform="matrix(611.32,311.394,-92.187,180.979,2533.764,1267.012)">
			<stop offset="0" stop-color="#b91c58"/>
			<stop offset="1" stop-color="#f95c97"/>
		</linearGradient>
		<linearGradient id="g11" x2="1" gradientUnits="userSpaceOnUse" gradientTransform="matrix(1001.807,186.893,-50.464,270.505,2271.436,1108.708)">
			<stop offset="0" stop-color="#b91c58"/>
			<stop offset="1" stop-color="#ff8bc7"/>
		</linearGradient>
		<linearGradient id="g12" x2="1" gradientUnits="userSpaceOnUse" gradientTransform="matrix(-686.802,-120.359,37.249,-212.555,2952.975,1382.09)">
			<stop offset="0" stop-color="#ffce4b"/>
			<stop offset="1" stop-color="#d3226f"/>
		</linearGradient>
		<linearGradient id="g13" x2="1" gradientUnits="userSpaceOnUse" gradientTransform="matrix(393.056,-1002.414,764.529,299.779,1153.252,1855.545)">
			<stop offset="0" stop-color="#00478f"/>
			<stop offset="1" stop-color="#c11fda"/>
		</linearGradient>
		<linearGradient id="g14" x2="1" gradientUnits="userSpaceOnUse" gradientTransform="matrix(-958.79,-94.684,39.807,-403.097,2973.068,1297.052)">
			<stop offset="0" stop-color="#ffce4b"/>
			<stop offset="1" stop-color="#d3226f"/>
		</linearGradient>
	</defs>
	<style>
		.s0 { fill: url(#g1) } 
		.s1 { fill: url(#g2) } 
		.s2 { fill: url(#g3) } 
		.s3 { fill: url(#g4) } 
		.s4 { fill: #990038 } 
		.s5 { fill: none;stroke: #231916;stroke-miterlimit:22.9256;stroke-width: .6 } 
		.s6 { fill: url(#g5) } 
		.s7 { fill: url(#g6) } 
		.s8 { fill: url(#g7) } 
		.s9 { fill: url(#g8) } 
		.s10 { fill: url(#g9) } 
		.s11 { fill: url(#g10) } 
		.s12 { fill: url(#g11) } 
		.s13 { fill: url(#g12) } 
		.s14 { fill: url(#g13) } 
		.s15 { fill: url(#g14) } 
		.s16 { fill: #102770 } 
	</style>
	<g id="_Artboards_">
	</g>
	<g id="Layer 1">
		<g id="&lt;Group&gt;">
			<g id="&lt;Clip Group&gt;">
				<path id="&lt;Path&gt;" class="s0" d="m1541.1 2678.2c385.7-89.4 592.8-278.6 676.9-538.6-118.3 16.2-171.8 42.8-223.6 52.3-97.2 238.2-294.4 398.6-453.3 486.3z"/>
			</g>
			<g id="&lt;Clip Group&gt;">
				<path id="&lt;Path&gt;" class="s1" d="m1699.7 2837.8c352-181.3 506.4-415.6 524.2-688.2-110.8 44.7-156.1 83.6-204 105.5-35.8 254.8-187.6 458.7-320.2 582.7z"/>
			</g>
			<g id="&lt;Clip Group&gt;">
				<path id="&lt;Path&gt;" class="s2" d="m1932.4 2902c243.2-224.7 315.3-448 268.7-671.6-79.3 60.7-107.1 102.2-140.8 130.6 28.1 213.2-48.7 411.5-127.9 541z"/>
			</g>
			<g id="&lt;Clip Group&gt;">
				<path id="&lt;Path&gt;" class="s3" d="m1072.5 1526.3c133.7-622.7 962.6 167.1 1084 401.3 0 0 269.2 533.3-69.7 951.9 224.6-463-147-662.1-477.2-779.9-368.3-131.4-312.5-403.9-442-469.3-64.1-32.4-132.2 0-168.6 65.5-9.7-57.3-4.5-101.5 73.5-169.5z"/>
			</g>
			<path id="&lt;Path&gt;" class="s4" d="m2115 2814.8c160.9-417.1-191.1-603.1-505.4-715.2-368.3-131.4-312.5-403.9-442-469.3-64.1-32.4-132.2 0-168.6 65.5 0 0 131-423.7 666.5 55.4 0 0 743.6 333.1 449.5 1063.6z"/>
			<path id="&lt;Path&gt;" class="s5" d="m1227.3 1690.6c364.1 354.3 660.1-997.4 1674.4-857-977 97.7-932 1222.7-1448.9 1186.5"/>
			<g id="&lt;Clip Group&gt;">
				<path id="&lt;Path&gt;" class="s6" d="m1782 2153.9c79.9-197.4 60.7-347-27.6-464.4-29.5 57-52.4 105.7-64.2 131.5 52.8 135.4 88.8 272.5 91.8 332.9z"/>
			</g>
			<g id="&lt;Clip Group&gt;">
				<path id="&lt;Path&gt;" class="s7" d="m1934.1 2183.5c81.2-288.1 31.3-494.3-110.3-644.7-32.3 84.3-56.8 155.8-69.4 193.6 94.7 181.1 166.1 367.2 179.7 451.1z"/>
			</g>
			<g id="&lt;Clip Group&gt;">
				<path id="&lt;Path&gt;" class="s8" d="m2154 2176.2c43.1-328.3-44.3-546-223.1-688.2-22.1 97.4-46.7 162.2-54.5 205.5 132.5 183.2 249.4 393 277.6 482.7z"/>
			</g>
			<g id="&lt;Clip Group&gt;">
				<path id="&lt;Path&gt;" class="s9" d="m2325.7 2166.2c59.2-373.4-72.2-593.9-322.9-722-19.4 35.7-37.4 70.3-53.7 102.3 176.2 206.4 343.9 505.2 376.6 619.7z"/>
			</g>
			<g id="&lt;Clip Group&gt;">
				<path id="&lt;Path&gt;" class="s10" d="m2656.7 2049.8c-71.6-430.1-308.4-603.7-644.9-629.1-14.5 26.2-28.2 51.9-41.1 76.6 269.3 135.4 604.9 434 686 552.5z"/>
			</g>
			<g id="&lt;Clip Group&gt;">
				<path id="&lt;Path&gt;" class="s11" d="m2950.5 1843c-219.7-441-529-564.4-896.1-497-22 37.4-43.2 75.2-62.7 111.6 350.2 61.3 827.2 280.3 958.8 385.4z"/>
			</g>
			<g id="&lt;Clip Group&gt;">
				<path id="&lt;Path&gt;" class="s12" d="m3088.6 1592.6c-288-404.3-615.5-476-970.5-348.4-24.9 37.3-49.4 77.2-72.7 117.2 356.5-3.7 891.7 145.1 1043.2 231.2z"/>
			</g>
			<g id="&lt;Clip Group&gt;">
				<path id="&lt;Path&gt;" class="s13" d="m3030.1 1308.5c-291.2-295.6-570.9-309-846.9-153.7-26.2 32.5-52.6 69.9-78.3 109.4 287.2-62.8 783.4-8.7 925.2 44.3z"/>
			</g>
			<g id="&lt;Clip Group&gt;">
				<path id="&lt;Path&gt;" class="s14" d="m1910.8 1636c191-324.3 410.8-744.4 990.9-802.4-591.5-81.9-938.7 343.6-1197.6 642.4-185 213.5-325 362.3-476.8 214.6 50.4 84.1 75.1 222.7 225.5 329.5 210 14.7 327.3-162.2 458-384.1z"/>
			</g>
			<g id="&lt;Clip Group&gt;">
				<path id="&lt;Path&gt;" class="s15" d="m3091.1 1062.8c-309.1-219.3-579.1-116.3-579.1-116.3-148.5 78.1-261.8 187.3-355.2 306.4 132.3-166.7 771.8-220 934.3-190.1z"/>
			</g>
			<path id="&lt;Path&gt;" class="s16" d="m1823.8 1538.8c-331.4 510.6-525.5 299.9-525.5 299.9 31.5 61 75.8 125.5 154.5 181.4 210 14.7 327.3-162.2 458-384.1 191-324.3 410.8-744.4 990.9-802.4-675.3-8.1-1077.9 705.2-1077.9 705.2z"/>
		</g>
	</g>
</svg>